<svg id="Layer_1" data-name="Layer 1" xmlns="http://www.w3.org/2000/svg" viewBox="0 0 90 90">
    <path
        d="M31.24,59.07l-16.08,16.58M30.96,31.99c3.52-3.62,8.33-5.71,13.39-5.79s9.93,1.86,13.56,5.37c3.63,3.51,5.71,8.32,5.79,13.38.04,2.5-.42,4.99-1.34,7.32-.92,2.33-2.29,4.45-4.03,6.24-1.74,1.8-3.82,3.24-6.12,4.23s-4.77,1.52-7.27,1.56c-2.5.04-4.99-.41-7.31-1.33s-4.45-2.3-6.25-4.04c-1.8-1.74-3.23-3.82-4.22-6.11-.99-2.3-1.53-4.77-1.56-7.27-.08-5.06,1.85-9.94,5.37-13.56Z"
        fill="#a7ffe8" stroke="#000" stroke-linecap="round" stroke-linejoin="round" stroke-width="2.62"></path>
    <path
        d="M51.9,56.56l2.99-2.57-4.86-9.71,3.06-2.63c2.21-1.89,3.23-4.32,2.28-5.43s-3.5-.46-5.71,1.43l-3.06,2.63-8.86-6.27-2.99,2.57,6.86,7.99-4.06,3.49-2.71-1.14-3,2.57,4.43,3.13,2.42,4.86,3-2.57-.72-2.85,4.06-3.49,6.86,7.99Z"
        fill="#fff" stroke="#000" stroke-linejoin="round" stroke-width="1.31"></path>
    <g>
        <path d="M15.9,43.4c1.94-.15,3.64,1.3,3.79,3.24s-1.3,3.64-3.24,3.79-3.64-1.3-3.79-3.24,1.3-3.64,3.24-3.79Z"
            fill="#e5dfff" stroke="#000" stroke-linejoin="round" stroke-width="1.31"></path>
        <path d="M18.29,33.11c1.86.56,2.93,2.52,2.37,4.38s-2.52,2.93-4.38,2.37-2.93-2.52-2.37-4.38,2.52-2.93,4.38-2.37Z"
            fill="#fff" stroke="#000" stroke-linejoin="round" stroke-width="1.31"></path>
        <path d="M24.21,24.36c1.54,1.19,1.83,3.4.64,4.94s-3.4,1.83-4.94.64-1.83-3.4-.64-4.94,3.4-1.83,4.94-.64Z"
            fill="#a7ffe8" stroke="#000" stroke-linejoin="round" stroke-width="1.31"></path>
        <path d="M32.87,18.32c1.01,1.66.49,3.83-1.17,4.84s-3.83.49-4.84-1.17-.49-3.83,1.17-4.84,3.83-.49,4.84,1.17Z"
            fill="#e5dfff" stroke="#000" stroke-linejoin="round" stroke-width="1.31"></path>
        <path d="M43.13,15.78c.35,1.91-.92,3.75-2.83,4.1s-3.75-.92-4.1-2.83.92-3.75,2.83-4.1,3.75.92,4.1,2.83Z"
            fill="#fff" stroke="#000" stroke-linejoin="round" stroke-width="1.31"></path>
        <path d="M53.61,17.1c-.36,1.91-2.2,3.17-4.12,2.81s-3.17-2.2-2.81-4.12,2.2-3.17,4.12-2.81,3.17,2.2,2.81,4.12Z"
            fill="#a7ffe8" stroke="#000" stroke-linejoin="round" stroke-width="1.31"></path>
        <g>
            <path d="M82.83,37.22c-1.94.2-3.67-1.2-3.87-3.14s1.2-3.67,3.14-3.87,3.67,1.2,3.87,3.14-1.2,3.67-3.14,3.87Z"
                fill="#e5dfff" stroke="#000" stroke-linejoin="round" stroke-width="1.31"></path>
            <path
                d="M83.54,47.38c-1.92-.31-3.23-2.11-2.92-4.04s2.11-3.23,4.04-2.92,3.23,2.11,2.92,4.04-2.11,3.23-4.04,2.92Z"
                fill="#fff" stroke="#000" stroke-linejoin="round" stroke-width="1.31"></path>
            <path
                d="M81.6,57.37c-1.78-.79-2.57-2.88-1.78-4.66s2.88-2.57,4.66-1.78,2.57,2.88,1.78,4.66-2.88,2.57-4.66,1.78Z"
                fill="#a7ffe8" stroke="#000" stroke-linejoin="round" stroke-width="1.31"></path>
            <path d="M77.12,66.52c-1.51-1.23-1.74-3.45-.51-4.96s3.45-1.74,4.96-.51,1.74,3.45.51,4.96-3.45,1.74-4.96.51Z"
                fill="#e5dfff" stroke="#000" stroke-linejoin="round" stroke-width="1.31"></path>
            <path d="M70.43,74.19c-1.14-1.58-.78-3.78.8-4.92s3.78-.78,4.92.8.78,3.78-.8,4.92-3.78.78-4.92-.8Z"
                fill="#fff" stroke="#000" stroke-linejoin="round" stroke-width="1.31"></path>
            <path d="M61.97,79.86c-.69-1.82.23-3.85,2.05-4.54s3.86.23,4.54,2.05-.23,3.86-2.05,4.54-3.86-.23-4.54-2.05Z"
                fill="#a7ffe8" stroke="#000" stroke-linejoin="round" stroke-width="1.31"></path>
            <path
                d="M52.33,83.14c-.19-1.94,1.22-3.66,3.16-3.86s3.66,1.22,3.86,3.16-1.22,3.66-3.16,3.86-3.66-1.22-3.86-3.16Z"
                fill="#e5dfff" stroke="#000" stroke-linejoin="round" stroke-width="1.31"></path>
            <path
                d="M42.17,83.81c.32-1.92,2.13-3.22,4.05-2.91s3.22,2.13,2.91,4.05-2.13,3.22-4.05,2.91-3.22-2.13-2.91-4.05Z"
                fill="#fff" stroke="#000" stroke-linejoin="round" stroke-width="1.31"></path>
            <path
                d="M5.93,42.28c1.92.32,3.21,2.14,2.89,4.06s-2.14,3.21-4.06,2.89-3.21-2.14-2.89-4.06,2.14-3.21,4.06-2.89Z"
                fill="#fff" stroke="#000" stroke-linejoin="round" stroke-width="1.31"></path>
            <path d="M7.97,32.3c1.77.81,2.55,2.9,1.73,4.67s-2.9,2.55-4.67,1.73-2.55-2.9-1.73-4.67,2.9-2.55,4.67-1.73Z"
                fill="#a7ffe8" stroke="#000" stroke-linejoin="round" stroke-width="1.31"></path>
            <path d="M12.52,23.2c1.5,1.24,1.71,3.46.46,4.96s-3.47,1.7-4.96.46-1.7-3.47-.46-4.96,3.47-1.7,4.96-.46Z"
                fill="#e5dfff" stroke="#000" stroke-linejoin="round" stroke-width="1.31"></path>
            <path d="M19.29,15.59c1.12,1.59.75,3.79-.84,4.91s-3.79.75-4.91-.84-.75-3.79.84-4.91,3.79-.75,4.91.84Z"
                fill="#fff" stroke="#000" stroke-linejoin="round" stroke-width="1.31"></path>
            <path d="M27.79,9.99c.67,1.83-.26,3.85-2.09,4.53s-3.85-.26-4.53-2.09.26-3.85,2.09-4.53,3.85.26,4.53,2.09Z"
                fill="#a7ffe8" stroke="#000" stroke-linejoin="round" stroke-width="1.31"></path>
            <path
                d="M37.46,6.8c.18,1.94-1.25,3.65-3.19,3.83s-3.65-1.25-3.83-3.19,1.25-3.65,3.19-3.83,3.65,1.25,3.83,3.19Z"
                fill="#e5dfff" stroke="#000" stroke-linejoin="round" stroke-width="1.31"></path>
            <path
                d="M47.63,6.22c-.33,1.92-2.16,3.2-4.08,2.87s-3.2-2.16-2.87-4.08,2.16-3.2,4.08-2.87,3.2,2.16,2.87,4.08Z"
                fill="#fff" stroke="#000" stroke-linejoin="round" stroke-width="1.31"></path>
            <path
                d="M57.59,8.3c-.82,1.76-2.91,2.53-4.68,1.71s-2.53-2.92-1.71-4.68,2.92-2.53,4.68-1.71,2.53,2.92,1.71,4.68Z"
                fill="#a7ffe8" stroke="#000" stroke-linejoin="round" stroke-width="1.31"></path>
            <path d="M66.68,12.9c-1.25,1.49-3.47,1.69-4.96.44s-1.69-3.47-.44-4.96,3.47-1.69,4.96-.44,1.69,3.47.44,4.96Z"
                fill="#e5dfff" stroke="#000" stroke-linejoin="round" stroke-width="1.31"></path>
            <path d="M74.26,19.7c-1.59,1.12-3.79.73-4.91-.86s-.73-3.79.86-4.91,3.79-.73,4.91.86.73,3.79-.86,4.91Z"
                fill="#fff" stroke="#000" stroke-linejoin="round" stroke-width="1.31"></path>
            <path d="M79.81,28.23c-1.83.66-3.85-.28-4.52-2.11s.28-3.85,2.11-4.52,3.85.28,4.52,2.11-.28,3.85-2.11,4.52Z"
                fill="#a7ffe8" stroke="#000" stroke-linejoin="round" stroke-width="1.31"></path>
        </g>
        <path
            d="M62.92,22.09c-1.02,1.66-3.19,2.17-4.85,1.15s-2.17-3.19-1.15-4.85,3.19-2.17,4.85-1.15,2.17,3.19,1.15,4.85Z"
            fill="#e5dfff" stroke="#000" stroke-linejoin="round" stroke-width="1.31"></path>
        <path d="M69.82,30.08c-1.55,1.18-3.76.88-4.94-.67s-.88-3.76.67-4.94,3.76-.88,4.94.67.88,3.76-.67,4.94Z"
            fill="#fff" stroke="#000" stroke-linejoin="round" stroke-width="1.31"></path>
        <path d="M73.4,40.02c-1.87.54-3.83-.53-4.37-2.4s.53-3.83,2.4-4.37,3.83.53,4.37,2.4-.53,3.83-2.4,4.37Z"
            fill="#a7ffe8" stroke="#000" stroke-linejoin="round" stroke-width="1.31"></path>
        <path d="M73.17,50.58c-1.94-.16-3.38-1.86-3.22-3.8s1.87-3.38,3.8-3.22,3.38,1.87,3.22,3.8-1.87,3.38-3.8,3.22Z"
            fill="#e5dfff" stroke="#000" stroke-linejoin="round" stroke-width="1.31"></path>
        <path
            d="M69.17,60.36c-1.75-.85-2.49-2.95-1.64-4.71s2.95-2.49,4.71-1.64,2.49,2.95,1.64,4.71-2.95,2.49-4.71,1.64Z"
            fill="#fff" stroke="#000" stroke-linejoin="round" stroke-width="1.31"></path>
        <path d="M61.92,68.05c-1.33-1.42-1.26-3.65.16-4.98s3.65-1.26,4.98.16,1.26,3.65-.16,4.98-3.65,1.26-4.98-.16Z"
            fill="#a7ffe8" stroke="#000" stroke-linejoin="round" stroke-width="1.31"></path>
        <path d="M52.4,72.63c-.73-1.8.13-3.86,1.93-4.59s3.86.13,4.59,1.93-.13,3.86-1.93,4.59-3.86-.13-4.59-1.93Z"
            fill="#e5dfff" stroke="#000" stroke-linejoin="round" stroke-width="1.31"></path>
        <path
            d="M41.87,73.49c-.04-1.95,1.51-3.56,3.45-3.59s3.56,1.51,3.59,3.45-1.51,3.56-3.45,3.59-3.56-1.51-3.59-3.45Z"
            fill="#fff" stroke="#000" stroke-linejoin="round" stroke-width="1.31"></path>
    </g>
</svg>